<svg xmlns="http://www.w3.org/2000/svg" xmlns:xlink="http://www.w3.org/1999/xlink" width="400" zoomAndPan="magnify" viewBox="0 0 300 299.999988" height="400" preserveAspectRatio="xMidYMid meet" version="1.0"><path fill="#e44d26" d="M 43.738281 268.132812 L 20.09375 2.675781 L 279.878906 2.675781 L 256.210938 268.085938 L 149.828125 297.613281 Z M 43.738281 268.132812 " fill-opacity="1" fill-rule="nonzero"/><path fill="#f16529" d="M 149.988281 275.050781 L 235.957031 251.199219 L 256.171875 24.378906 L 149.988281 24.378906 Z M 149.988281 275.050781 " fill-opacity="1" fill-rule="nonzero"/><path fill="#ebebeb" d="M 149.988281 122.839844 L 106.949219 122.839844 L 103.976562 89.5 L 149.988281 89.5 L 149.988281 56.945312 L 68.4375 56.945312 L 69.210938 65.671875 L 77.203125 155.394531 L 149.988281 155.394531 Z M 149.988281 207.386719 L 149.839844 207.425781 L 113.625 197.628906 L 111.304688 171.664062 L 78.664062 171.664062 L 83.21875 222.785156 L 149.839844 241.292969 L 149.988281 241.257812 Z M 149.988281 207.386719 " fill-opacity="1" fill-rule="nonzero"/><path fill="#ffffff" d="M 149.875 122.839844 L 149.875 155.394531 L 189.921875 155.394531 L 186.140625 197.617188 L 149.863281 207.414062 L 149.863281 241.28125 L 216.535156 222.785156 L 217.027344 217.28125 L 224.671875 131.5625 L 225.472656 122.828125 L 216.707031 122.828125 Z M 149.875 56.945312 L 149.875 89.5 L 228.429688 89.5 L 229.082031 82.175781 L 230.566406 65.671875 L 231.339844 56.933594 Z M 149.875 56.945312 " fill-opacity="1" fill-rule="nonzero"/></svg>